<svg width="189" height="28" viewBox="0 0 189 28" fill="none" xmlns="http://www.w3.org/2000/svg">
<path d="M18.9479 22.692V27.2203H0.498047V0.649414H18.6111V5.17768H5.66252V11.5771H16.8522V15.7686H5.66252V22.692H18.9479Z" fill="#0C4BA0"/>
<path d="M24.9577 0.649414L32.143 21.0828L39.2535 0.649414H44.68L34.613 27.2203H29.6356L19.5312 0.649414H24.9577Z" fill="#0C4BA0"/>
<path d="M65.2174 22.692V27.2203H46.7675V0.649414H64.8806V5.17768H51.932V11.5771H63.1217V15.7686H51.932V22.692H65.2174Z" fill="#0C4BA0"/>
<path d="M68.4952 27.2203V0.649414H80.2463C81.4688 0.649414 82.5915 0.898905 83.6144 1.39789C84.6623 1.89687 85.5604 2.5705 86.3089 3.41877C87.0823 4.26704 87.6686 5.21511 88.0678 6.26297C88.492 7.31084 88.704 8.38365 88.704 9.48141C88.704 10.6041 88.5044 11.6894 88.1052 12.7373C87.731 13.7602 87.1821 14.6584 86.4586 15.4318C85.7351 16.2052 84.8868 16.804 83.9138 17.2281L89.9764 27.2203H84.288L78.8242 18.3134H73.6597V27.2203H68.4952ZM73.6597 13.7851H80.134C80.7827 13.7851 81.3565 13.598 81.8555 13.2238C82.3545 12.8246 82.7537 12.3007 83.053 11.652C83.3524 11.0033 83.5021 10.2798 83.5021 9.48141C83.5021 8.63314 83.3275 7.89714 82.9782 7.27341C82.6289 6.62474 82.1798 6.11328 81.6309 5.73904C81.107 5.3648 80.5332 5.17768 79.9095 5.17768H73.6597V13.7851Z" fill="#0C4BA0"/>
<path d="M92.635 27.2203V0.649414H97.7995V22.692H111.347V27.2203H92.635Z" fill="#F98060"/>
<path d="M120.964 0.649414H126.203L135.971 27.2203H130.657L128.187 20.5963H118.906L116.473 27.2203H111.159L120.964 0.649414ZM127.251 16.9662L123.584 6.00101L119.767 16.9662H127.251Z" fill="#F98060"/>
<path d="M143.301 10.155V27.2203H138.137V0.649414H142.254L155.988 18.1637V0.686837H161.153V27.2203H156.849L143.301 10.155Z" fill="#F98060"/>
<path d="M165.931 27.2203V0.649414H175.587C178.481 0.649414 180.901 1.24819 182.847 2.44575C184.793 3.61836 186.252 5.21511 187.226 7.23599C188.199 9.23192 188.685 11.4524 188.685 13.8974C188.685 16.5919 188.149 18.9371 187.076 20.9331C186.003 22.929 184.481 24.4759 182.51 25.5736C180.564 26.6714 178.256 27.2203 175.587 27.2203H165.931ZM183.483 13.8974C183.483 12.1759 183.171 10.6665 182.548 9.36914C181.924 8.04684 181.026 7.02392 179.853 6.3004C178.68 5.55192 177.258 5.17768 175.587 5.17768H171.096V22.692H175.587C177.283 22.692 178.718 22.3178 179.89 21.5693C181.063 20.7959 181.949 19.748 182.548 18.4257C183.171 17.0784 183.483 15.569 183.483 13.8974Z" fill="#F98060"/>
</svg>
