<svg width="116" height="20" viewBox="0 0 116 20" fill="none" xmlns="http://www.w3.org/2000/svg">
<path d="M9.6532 19.3064C14.9845 19.3064 19.3064 14.9845 19.3064 9.6532C19.3064 4.32189 14.9845 0 9.6532 0C4.32189 0 0 4.32189 0 9.6532C0 14.9845 4.32189 19.3064 9.6532 19.3064Z" fill="#242424"/>
<path d="M11.0761 5.40518H10.0965C8.42329 5.40518 7.58667 6.24179 7.58667 7.50028C7.58667 8.89463 8.14441 9.59538 9.40291 10.432L10.3754 11.147L7.58667 15.4374H5.35571L8.00856 11.5332C6.47119 10.4177 5.63458 9.43807 5.63458 7.62184C5.63458 5.39088 7.17194 3.85352 10.0965 3.85352H13.0282V15.4374H11.0761V5.40518Z" fill="white"/>
<path d="M112.978 16.8033H115.366V6.42787H111.998L109.753 13.3353L107.722 6.43502H104.147V16.8033H106.235V9.05211L108.48 16.8033H110.483L112.978 9.05211V16.8033ZM96.1529 20.021C98.4411 20.021 99.2849 18.3907 99.9856 16.267L103.225 6.43502H100.858L98.5627 14.2291L96.2745 6.43502H93.6717L97.247 17.2609C97.126 17.5119 96.9343 17.7221 96.6955 17.8656C96.4567 18.0092 96.1811 18.0798 95.9027 18.0689C95.6996 18.0776 95.4968 18.0454 95.3064 17.9742C95.116 17.9029 94.9418 17.7941 94.7943 17.6542V19.6563C95.1876 19.9394 95.6708 20.0691 96.1529 20.021ZM91.2119 16.8247H93.9935L90.0536 11.233L93.5216 6.43502H91.0475L87.5795 11.2187V6.43502H85.1268V16.8033H87.5795V11.7121L91.2119 16.8247ZM74.7514 6.43502V16.8033H76.8966L80.6935 10.3678V16.8033H83.0889V6.43502H80.9438L77.1469 12.8705V6.43502H74.7514ZM73.3213 8.37281V6.43502H65.0696V8.36566H67.9298V16.8033H70.3825V8.36566L73.3213 8.37281ZM62.3882 16.8033H65.1769L61.237 11.2116L64.6978 6.43502H62.2094L58.7486 11.2187V6.43502H56.3031V16.8033H58.7629V11.7121L62.3882 16.8033ZM51.8769 14.3006C51.6764 14.5726 51.4112 14.7903 51.1052 14.9339C50.7993 15.0774 50.4624 15.1424 50.1251 15.1229C49.9185 15.1401 49.7106 15.1122 49.5159 15.0412C49.3212 14.9701 49.1443 14.8576 48.9973 14.7113C48.8504 14.5651 48.7371 14.3887 48.6651 14.1943C48.5931 13.9999 48.5643 13.7922 48.5805 13.5855C48.5805 12.37 49.4243 11.9338 51.5266 11.9338H51.8769V14.3006ZM54.3439 9.73141C54.3439 7.21443 53.0639 6.26341 50.4611 6.26341C49.1832 6.25546 47.9256 6.58341 46.8144 7.21443V9.25233C47.8174 8.60389 48.981 8.24737 50.1751 8.22265C51.3478 8.22265 51.8841 8.63738 51.8841 9.75286V10.3249H51.4837C47.7296 10.3249 46.0564 11.5619 46.0564 13.6713C46.0564 15.7808 47.3364 16.9463 49.2312 16.9463C49.6999 16.9894 50.1723 16.9249 50.6122 16.7576C51.0522 16.5902 51.4481 16.3246 51.7697 15.981H51.8698C51.8981 16.2616 51.9605 16.5378 52.0557 16.8033H54.4511C54.3736 15.9714 54.3378 15.1361 54.3439 14.3006V9.73141ZM40.3789 15.0728C39.0775 15.0728 38.4197 14.0217 38.4197 11.6263C38.4197 9.23087 39.1347 8.16545 40.5005 8.16545C41.8662 8.16545 42.5026 9.21657 42.5026 11.6048C42.5026 13.9931 41.8019 15.0728 40.3789 15.0728ZM38.2337 6.43502H35.967V19.7922H38.4197V15.5877C38.6908 16.0261 39.0698 16.3877 39.5205 16.6381C39.9711 16.8884 40.4783 17.0191 40.9938 17.0178C43.3893 17.0178 45.041 15.1014 45.041 11.612C45.041 8.12254 43.4322 6.2205 41.1226 6.2205C40.566 6.21518 40.0178 6.3556 39.5323 6.62781C39.0468 6.90002 38.641 7.29455 38.3553 7.77217L38.2337 6.43502ZM24.469 2.47363V16.7747H26.9645V4.41142H31.4121V16.8033H33.9077V2.50223L24.469 2.47363Z" fill="#242424"/>
</svg>
