<svg width="138" height="24" viewBox="0 0 138 24" fill="none" xmlns="http://www.w3.org/2000/svg">
<path d="M48.4946 21.2309V23.5935H38.8686V9.73047H48.3189V12.093H41.5631V15.4319H47.4012V17.6187H41.5631V21.2309H48.4946Z" fill="#0C4BA0"/>
<path d="M51.6301 9.73047L55.379 20.3914L59.0888 9.73047H61.92L56.6677 23.5935H54.0708L48.7989 9.73047H51.6301Z" fill="#0C4BA0"/>
<path d="M72.6352 21.2309V23.5935H63.0092V9.73047H72.4595V12.093H65.7037V15.4319H71.5418V17.6187H65.7037V21.2309H72.6352Z" fill="#0C4BA0"/>
<path d="M74.3454 23.5935V9.73047H80.4764C81.1142 9.73047 81.6999 9.86064 82.2336 10.121C82.7804 10.3813 83.249 10.7328 83.6395 11.1754C84.043 11.6179 84.3489 12.1126 84.5572 12.6593C84.7785 13.206 84.8891 13.7657 84.8891 14.3385C84.8891 14.9242 84.785 15.4905 84.5767 16.0372C84.3814 16.5709 84.0951 17.0395 83.7176 17.443C83.3401 17.8465 82.8975 18.1589 82.3898 18.3802L85.553 23.5935H82.5851L79.7344 18.9465H77.0399V23.5935H74.3454ZM77.0399 16.5839H80.4178C80.7562 16.5839 81.0556 16.4863 81.3159 16.291C81.5763 16.0827 81.7846 15.8094 81.9408 15.4709C82.097 15.1325 82.1751 14.755 82.1751 14.3385C82.1751 13.8959 82.0839 13.5119 81.9017 13.1865C81.7195 12.848 81.4852 12.5812 81.1988 12.3859C80.9254 12.1907 80.626 12.093 80.3006 12.093H77.0399V16.5839Z" fill="#0C4BA0"/>
<path d="M86.94 23.5935V9.73047H89.6345V21.2309H96.7027V23.5935H86.94Z" fill="#F98060"/>
<path d="M101.72 9.73047H104.454L109.55 23.5935H106.778L105.489 20.1375H100.647L99.3774 23.5935H96.6048L101.72 9.73047ZM105.001 18.2436L103.087 12.5226L101.096 18.2436H105.001Z" fill="#F98060"/>
<path d="M113.375 14.6899V23.5935H110.68V9.73047H112.828L119.994 18.8684V9.74999H122.688V23.5935H120.443L113.375 14.6899Z" fill="#F98060"/>
<path d="M125.182 23.5935V9.73047H130.219C131.729 9.73047 132.992 10.0429 134.007 10.6677C135.022 11.2795 135.784 12.1126 136.292 13.1669C136.799 14.2083 137.053 15.3668 137.053 16.6425C137.053 18.0483 136.773 19.2719 136.214 20.3132C135.654 21.3546 134.86 22.1617 133.831 22.7344C132.816 23.3071 131.612 23.5935 130.219 23.5935H125.182ZM134.339 16.6425C134.339 15.7443 134.176 14.9568 133.851 14.2799C133.526 13.59 133.057 13.0563 132.445 12.6788C131.833 12.2883 131.091 12.093 130.219 12.093H127.876V21.2309H130.219C131.104 21.2309 131.853 21.0357 132.465 20.6452C133.076 20.2417 133.539 19.6949 133.851 19.005C134.176 18.3021 134.339 17.5146 134.339 16.6425Z" fill="#F98060"/>
<path d="M33.9891 24C34.7752 24 35.254 23.1347 34.8363 22.4687L21.5738 1.32046C21.1867 0.7031 20.2904 0.693854 19.8906 1.30309L12.6584 12.3235C12.3946 12.7257 11.8818 12.8829 11.4378 12.6979L8.14248 11.3249C7.67457 11.1299 7.1348 11.3159 6.88628 11.7577L0.838272 22.5097C0.463307 23.1763 0.945018 24 1.70984 24H33.9891Z" fill="#0C4BA0"/>
<g clip-path="url(#clip0_4081_92)">
<path d="M8.83894 4.14109C8.80365 4.06335 8.79082 3.97728 8.80189 3.89262C8.81295 3.80796 8.84749 3.72809 8.90158 3.66203C8.95567 3.59597 9.02716 3.54637 9.10797 3.51881C9.18878 3.49126 9.27568 3.48686 9.35886 3.50612L11.0613 3.90055L12.3517 2.722C12.4146 2.66431 12.4925 2.62541 12.5765 2.60968C12.6604 2.59396 12.7471 2.60205 12.8267 2.63304C12.9063 2.66402 12.9757 2.71666 13.0269 2.78501C13.0781 2.85335 13.1092 2.93467 13.1166 3.01976L13.2673 4.76115L14.787 5.62365C14.8613 5.66578 14.9223 5.72787 14.9632 5.80288C15.004 5.8779 15.023 5.96285 15.0181 6.04812C15.0132 6.1334 14.9845 6.21559 14.9353 6.2854C14.8861 6.35521 14.8183 6.40986 14.7396 6.44315L13.1302 7.12451L12.7798 8.8367C12.7626 8.92038 12.7224 8.9976 12.6637 9.05962C12.605 9.12164 12.5301 9.16598 12.4474 9.18764C12.3648 9.20929 12.2778 9.20739 12.1962 9.18214C12.1146 9.1569 12.0417 9.10932 11.9857 9.04479L10.84 7.72554L9.1034 7.92023C9.01863 7.92963 8.93291 7.91515 8.85593 7.87843C8.77895 7.84171 8.71376 7.78421 8.66772 7.71241C8.62168 7.64061 8.59662 7.55738 8.59537 7.47209C8.59412 7.38681 8.61673 7.30287 8.66064 7.22976L9.56116 5.73269L8.83894 4.14109Z" fill="#F98060"/>
</g>
<defs>
<clipPath id="clip0_4081_92">
<rect width="8.13559" height="8.13559" fill="white" transform="translate(5.69495 6.29492) rotate(-50.689)"/>
</clipPath>
</defs>
</svg>
