<svg width="25" height="14" viewBox="0 0 25 14" fill="none" xmlns="http://www.w3.org/2000/svg">
    <path fill-rule="evenodd" clip-rule="evenodd"
          d="M12.25 12.6005C10.9965 13.4793 9.43841 14 7.75 14C3.60786 14 0.25 10.866 0.25 7C0.25 3.13401 3.60786 0 7.75 0C9.43841 0 10.9965 0.520723 12.25 1.39949C13.5035 0.520723 15.0616 0 16.75 0C20.8921 0 24.25 3.13401 24.25 7C24.25 10.866 20.8921 14 16.75 14C15.0616 14 13.5035 13.4793 12.25 12.6005Z"
          fill="#ED0006"/>
    <path fill-rule="evenodd" clip-rule="evenodd"
          d="M12.25 12.6005C14.0717 11.3234 15.25 9.29014 15.25 7C15.25 4.70986 14.0717 2.67658 12.25 1.39949C13.5035 0.520723 15.0616 0 16.75 0C20.8921 0 24.25 3.13401 24.25 7C24.25 10.866 20.8921 14 16.75 14C15.0616 14 13.5035 13.4793 12.25 12.6005Z"
          fill="#F9A000"/>
    <path fill-rule="evenodd" clip-rule="evenodd"
          d="M11.75 12.3622C13.2785 11.0781 14.25 9.15253 14.25 7.00005C14.25 4.84758 13.2785 2.92201 11.75 1.63794C10.2215 2.92201 9.25 4.84758 9.25 7.00005C9.25 9.15253 10.2215 11.0781 11.75 12.3622Z"
          fill="#FF5E00"/>
</svg>
