<svg width="25" height="8" viewBox="0 0 25 8" fill="none" xmlns="http://www.w3.org/2000/svg">
    <path fill-rule="evenodd" clip-rule="evenodd"
          d="M5.92434 8H3.87357L2.33574 1.60085C2.26275 1.30649 2.10777 1.04626 1.87979 0.92361C1.31085 0.615385 0.683924 0.370084 0 0.246367V0H3.30363C3.75958 0 4.10154 0.370084 4.15854 0.799893L4.95645 5.41581L7.00622 0H9L5.92434 8ZM11.1937 8H9L10.8063 0H13L11.1937 8ZM14.9121 2.32835C14.9703 1.91047 15.32 1.67153 15.728 1.67153C16.3691 1.61154 17.0675 1.73152 17.6503 2.02942L18 0.358924C17.4172 0.119986 16.7761 0 16.1943 0C14.272 0 12.8732 1.0747 12.8732 2.56625C12.8732 3.70095 13.864 4.29674 14.5634 4.65566C15.32 5.01355 15.6115 5.25249 15.5532 5.61038C15.5532 6.14721 14.9703 6.38615 14.3885 6.38615C13.6892 6.38615 12.9898 6.20721 12.3497 5.90828L12 7.57981C12.6994 7.8777 13.456 7.99769 14.1554 7.99769C16.3108 8.05665 17.6503 6.98298 17.6503 5.37144C17.6503 3.34202 14.9121 3.22307 14.9121 2.32835ZM25 8L23.4251 0H21.7335C21.3833 0 21.0331 0.246367 20.9163 0.615385L18 8H20.0418L20.4494 6.83109H22.9582L23.1916 8H25ZM22.2865 2L23 5H21L22.2865 2Z"
          fill="#0C4BA0"/>
</svg>
